<?xml version="1.0" encoding="UTF-8"?>
<svg xmlns="http://www.w3.org/2000/svg" xmlns:xlink="http://www.w3.org/1999/xlink" width="791" height="600" viewBox="0 0 791 600">
<defs>
<g>
<g id="glyph-0-0">
<path d="M 1.28125 -10.203125 L 3.921875 -10.203125 L 3.921875 -4.09375 C 3.921875 -3.25 4.054688 -2.644531 4.328125 -2.28125 C 4.609375 -1.914062 5.0625 -1.734375 5.6875 -1.734375 C 6.3125 -1.734375 6.757812 -1.914062 7.03125 -2.28125 C 7.3125 -2.644531 7.453125 -3.25 7.453125 -4.09375 L 7.453125 -10.203125 L 10.078125 -10.203125 L 10.078125 -4.09375 C 10.078125 -2.644531 9.710938 -1.566406 8.984375 -0.859375 C 8.265625 -0.148438 7.164062 0.203125 5.6875 0.203125 C 4.195312 0.203125 3.085938 -0.148438 2.359375 -0.859375 C 1.640625 -1.566406 1.28125 -2.644531 1.28125 -4.09375 Z M 1.28125 -10.203125 "/>
</g>
<g id="glyph-0-1">
<path d="M 7.15625 -7.421875 L 7.15625 -5.5625 C 6.632812 -5.78125 6.128906 -5.941406 5.640625 -6.046875 C 5.148438 -6.160156 4.691406 -6.21875 4.265625 -6.21875 C 3.796875 -6.21875 3.445312 -6.15625 3.21875 -6.03125 C 3 -5.914062 2.890625 -5.738281 2.890625 -5.5 C 2.890625 -5.300781 2.972656 -5.148438 3.140625 -5.046875 C 3.304688 -4.941406 3.613281 -4.863281 4.0625 -4.8125 L 4.484375 -4.765625 C 5.742188 -4.597656 6.585938 -4.332031 7.015625 -3.96875 C 7.453125 -3.601562 7.671875 -3.03125 7.671875 -2.25 C 7.671875 -1.4375 7.367188 -0.820312 6.765625 -0.40625 C 6.160156 0 5.265625 0.203125 4.078125 0.203125 C 3.566406 0.203125 3.039062 0.160156 2.5 0.078125 C 1.96875 -0.00390625 1.414062 -0.125 0.84375 -0.28125 L 0.84375 -2.140625 C 1.332031 -1.898438 1.832031 -1.71875 2.34375 -1.59375 C 2.851562 -1.476562 3.375 -1.421875 3.90625 -1.421875 C 4.382812 -1.421875 4.742188 -1.488281 4.984375 -1.625 C 5.222656 -1.757812 5.34375 -1.957031 5.34375 -2.21875 C 5.34375 -2.4375 5.257812 -2.597656 5.09375 -2.703125 C 4.925781 -2.804688 4.597656 -2.890625 4.109375 -2.953125 L 3.671875 -3.015625 C 2.578125 -3.148438 1.8125 -3.398438 1.375 -3.765625 C 0.9375 -4.140625 0.71875 -4.703125 0.71875 -5.453125 C 0.71875 -6.265625 0.992188 -6.863281 1.546875 -7.25 C 2.109375 -7.644531 2.960938 -7.84375 4.109375 -7.84375 C 4.566406 -7.84375 5.039062 -7.804688 5.53125 -7.734375 C 6.03125 -7.671875 6.570312 -7.566406 7.15625 -7.421875 Z M 7.15625 -7.421875 "/>
</g>
<g id="glyph-0-2">
<path d="M 8.8125 -3.84375 L 8.8125 -3.15625 L 3.09375 -3.15625 C 3.15625 -2.582031 3.363281 -2.148438 3.71875 -1.859375 C 4.070312 -1.566406 4.566406 -1.421875 5.203125 -1.421875 C 5.722656 -1.421875 6.253906 -1.5 6.796875 -1.65625 C 7.335938 -1.8125 7.890625 -2.046875 8.453125 -2.359375 L 8.453125 -0.46875 C 7.878906 -0.25 7.300781 -0.0820312 6.71875 0.03125 C 6.144531 0.144531 5.566406 0.203125 4.984375 0.203125 C 3.597656 0.203125 2.519531 -0.148438 1.75 -0.859375 C 0.988281 -1.566406 0.609375 -2.554688 0.609375 -3.828125 C 0.609375 -5.066406 0.984375 -6.046875 1.734375 -6.765625 C 2.484375 -7.484375 3.519531 -7.84375 4.84375 -7.84375 C 6.050781 -7.84375 7.015625 -7.476562 7.734375 -6.75 C 8.453125 -6.03125 8.8125 -5.0625 8.8125 -3.84375 Z M 6.296875 -4.65625 C 6.296875 -5.125 6.160156 -5.5 5.890625 -5.78125 C 5.617188 -6.070312 5.265625 -6.21875 4.828125 -6.21875 C 4.359375 -6.21875 3.972656 -6.082031 3.671875 -5.8125 C 3.378906 -5.550781 3.195312 -5.164062 3.125 -4.65625 Z M 6.296875 -4.65625 "/>
</g>
<g id="glyph-0-3">
<path d="M 6.859375 -5.578125 C 6.648438 -5.671875 6.4375 -5.738281 6.21875 -5.78125 C 6.007812 -5.832031 5.796875 -5.859375 5.578125 -5.859375 C 4.953125 -5.859375 4.46875 -5.65625 4.125 -5.25 C 3.789062 -4.851562 3.625 -4.28125 3.625 -3.53125 L 3.625 0 L 1.171875 0 L 1.171875 -7.65625 L 3.625 -7.65625 L 3.625 -6.40625 C 3.9375 -6.90625 4.296875 -7.269531 4.703125 -7.5 C 5.109375 -7.726562 5.597656 -7.84375 6.171875 -7.84375 C 6.253906 -7.84375 6.34375 -7.835938 6.4375 -7.828125 C 6.53125 -7.828125 6.671875 -7.8125 6.859375 -7.78125 Z M 6.859375 -5.578125 "/>
</g>
<g id="glyph-0-4">
<path d="M 0.0625 -10.203125 L 9.46875 -10.203125 L 9.46875 -8.21875 L 6.09375 -8.21875 L 6.09375 0 L 3.453125 0 L 3.453125 -8.21875 L 0.0625 -8.21875 Z M 0.0625 -10.203125 "/>
</g>
<g id="glyph-0-5">
<path d="M 4.609375 -3.453125 C 4.097656 -3.453125 3.710938 -3.363281 3.453125 -3.1875 C 3.191406 -3.007812 3.0625 -2.753906 3.0625 -2.421875 C 3.0625 -2.109375 3.164062 -1.863281 3.375 -1.6875 C 3.582031 -1.507812 3.875 -1.421875 4.25 -1.421875 C 4.707031 -1.421875 5.09375 -1.585938 5.40625 -1.921875 C 5.71875 -2.253906 5.875 -2.671875 5.875 -3.171875 L 5.875 -3.453125 Z M 8.34375 -4.375 L 8.34375 0 L 5.875 0 L 5.875 -1.140625 C 5.550781 -0.671875 5.179688 -0.328125 4.765625 -0.109375 C 4.359375 0.0976562 3.863281 0.203125 3.28125 0.203125 C 2.476562 0.203125 1.832031 -0.0234375 1.34375 -0.484375 C 0.851562 -0.953125 0.609375 -1.554688 0.609375 -2.296875 C 0.609375 -3.191406 0.914062 -3.847656 1.53125 -4.265625 C 2.144531 -4.691406 3.113281 -4.90625 4.4375 -4.90625 L 5.875 -4.90625 L 5.875 -5.09375 C 5.875 -5.476562 5.722656 -5.757812 5.421875 -5.9375 C 5.117188 -6.125 4.644531 -6.21875 4 -6.21875 C 3.46875 -6.21875 2.976562 -6.164062 2.53125 -6.0625 C 2.082031 -5.957031 1.660156 -5.796875 1.265625 -5.578125 L 1.265625 -7.453125 C 1.796875 -7.578125 2.320312 -7.671875 2.84375 -7.734375 C 3.375 -7.804688 3.90625 -7.84375 4.4375 -7.84375 C 5.820312 -7.84375 6.816406 -7.566406 7.421875 -7.015625 C 8.035156 -6.472656 8.34375 -5.59375 8.34375 -4.375 Z M 8.34375 -4.375 "/>
</g>
<g id="glyph-0-6">
<path d="M 1.171875 -10.640625 L 3.625 -10.640625 L 3.625 -4.84375 L 6.4375 -7.65625 L 9.28125 -7.65625 L 5.546875 -4.140625 L 9.578125 0 L 6.609375 0 L 3.625 -3.1875 L 3.625 0 L 1.171875 0 Z M 1.171875 -10.640625 "/>
</g>
<g id="glyph-0-7">
<path d="M 9.375 -0.5625 C 8.894531 -0.3125 8.390625 -0.125 7.859375 0 C 7.335938 0.132812 6.796875 0.203125 6.234375 0.203125 C 4.523438 0.203125 3.175781 -0.269531 2.1875 -1.21875 C 1.195312 -2.175781 0.703125 -3.46875 0.703125 -5.09375 C 0.703125 -6.726562 1.195312 -8.019531 2.1875 -8.96875 C 3.175781 -9.914062 4.523438 -10.390625 6.234375 -10.390625 C 6.796875 -10.390625 7.335938 -10.328125 7.859375 -10.203125 C 8.390625 -10.078125 8.894531 -9.882812 9.375 -9.625 L 9.375 -7.515625 C 8.882812 -7.847656 8.398438 -8.09375 7.921875 -8.25 C 7.453125 -8.40625 6.957031 -8.484375 6.4375 -8.484375 C 5.5 -8.484375 4.757812 -8.179688 4.21875 -7.578125 C 3.6875 -6.972656 3.421875 -6.144531 3.421875 -5.09375 C 3.421875 -4.039062 3.6875 -3.210938 4.21875 -2.609375 C 4.757812 -2.003906 5.5 -1.703125 6.4375 -1.703125 C 6.957031 -1.703125 7.453125 -1.78125 7.921875 -1.9375 C 8.398438 -2.09375 8.882812 -2.335938 9.375 -2.671875 Z M 9.375 -0.5625 "/>
</g>
<g id="glyph-0-8">
<path d="M 3.84375 -9.828125 L 3.84375 -7.65625 L 6.375 -7.65625 L 6.375 -5.90625 L 3.84375 -5.90625 L 3.84375 -2.65625 C 3.84375 -2.300781 3.910156 -2.0625 4.046875 -1.9375 C 4.191406 -1.8125 4.476562 -1.75 4.90625 -1.75 L 6.15625 -1.75 L 6.15625 0 L 4.0625 0 C 3.09375 0 2.40625 -0.195312 2 -0.59375 C 1.601562 -1 1.40625 -1.6875 1.40625 -2.65625 L 1.40625 -5.90625 L 0.1875 -5.90625 L 0.1875 -7.65625 L 1.40625 -7.65625 L 1.40625 -9.828125 Z M 3.84375 -9.828125 "/>
</g>
<g id="glyph-0-9">
<path d="M 6.390625 -1.296875 C 6.046875 -0.847656 5.671875 -0.519531 5.265625 -0.3125 C 4.859375 -0.101562 4.390625 0 3.859375 0 C 2.929688 0 2.160156 -0.363281 1.546875 -1.09375 C 0.929688 -1.832031 0.625 -2.773438 0.625 -3.921875 C 0.625 -5.066406 0.929688 -6.003906 1.546875 -6.734375 C 2.160156 -7.460938 2.929688 -7.828125 3.859375 -7.828125 C 4.390625 -7.828125 4.859375 -7.722656 5.265625 -7.515625 C 5.671875 -7.304688 6.046875 -6.972656 6.390625 -6.515625 L 6.390625 -7.65625 L 8.84375 -7.65625 L 8.84375 -0.765625 C 8.84375 0.460938 8.453125 1.398438 7.671875 2.046875 C 6.898438 2.691406 5.773438 3.015625 4.296875 3.015625 C 3.816406 3.015625 3.351562 2.976562 2.90625 2.90625 C 2.46875 2.832031 2.019531 2.722656 1.5625 2.578125 L 1.5625 0.671875 C 1.988281 0.921875 2.40625 1.101562 2.8125 1.21875 C 3.226562 1.34375 3.644531 1.40625 4.0625 1.40625 C 4.863281 1.40625 5.453125 1.226562 5.828125 0.875 C 6.203125 0.519531 6.390625 -0.0234375 6.390625 -0.765625 Z M 4.765625 -6.0625 C 4.265625 -6.0625 3.875 -5.875 3.59375 -5.5 C 3.3125 -5.125 3.171875 -4.597656 3.171875 -3.921875 C 3.171875 -3.210938 3.304688 -2.675781 3.578125 -2.3125 C 3.847656 -1.957031 4.242188 -1.78125 4.765625 -1.78125 C 5.273438 -1.78125 5.671875 -1.96875 5.953125 -2.34375 C 6.242188 -2.71875 6.390625 -3.242188 6.390625 -3.921875 C 6.390625 -4.597656 6.242188 -5.125 5.953125 -5.5 C 5.671875 -5.875 5.273438 -6.0625 4.765625 -6.0625 Z M 4.765625 -6.0625 "/>
</g>
<g id="glyph-0-10">
<path d="M 4.8125 -6.09375 C 4.269531 -6.09375 3.859375 -5.894531 3.578125 -5.5 C 3.296875 -5.113281 3.15625 -4.554688 3.15625 -3.828125 C 3.15625 -3.085938 3.296875 -2.519531 3.578125 -2.125 C 3.859375 -1.738281 4.269531 -1.546875 4.8125 -1.546875 C 5.351562 -1.546875 5.765625 -1.738281 6.046875 -2.125 C 6.328125 -2.519531 6.46875 -3.085938 6.46875 -3.828125 C 6.46875 -4.554688 6.328125 -5.113281 6.046875 -5.5 C 5.765625 -5.894531 5.351562 -6.09375 4.8125 -6.09375 Z M 4.8125 -7.84375 C 6.132812 -7.84375 7.164062 -7.484375 7.90625 -6.765625 C 8.644531 -6.054688 9.015625 -5.078125 9.015625 -3.828125 C 9.015625 -2.566406 8.644531 -1.578125 7.90625 -0.859375 C 7.164062 -0.148438 6.132812 0.203125 4.8125 0.203125 C 3.5 0.203125 2.46875 -0.148438 1.71875 -0.859375 C 0.976562 -1.578125 0.609375 -2.566406 0.609375 -3.828125 C 0.609375 -5.078125 0.976562 -6.054688 1.71875 -6.765625 C 2.46875 -7.484375 3.5 -7.84375 4.8125 -7.84375 Z M 4.8125 -7.84375 "/>
</g>
<g id="glyph-0-11">
<path d="M 0.171875 -7.65625 L 2.625 -7.65625 L 4.671875 -2.46875 L 6.421875 -7.65625 L 8.875 -7.65625 L 5.65625 0.71875 C 5.332031 1.570312 4.953125 2.164062 4.515625 2.5 C 4.085938 2.84375 3.519531 3.015625 2.8125 3.015625 L 1.40625 3.015625 L 1.40625 1.421875 L 2.171875 1.421875 C 2.585938 1.421875 2.890625 1.351562 3.078125 1.21875 C 3.265625 1.082031 3.410156 0.84375 3.515625 0.5 L 3.578125 0.296875 Z M 0.171875 -7.65625 "/>
</g>
<g id="glyph-0-12">
<path d="M 7.359375 -7.421875 L 7.359375 -5.421875 C 7.023438 -5.648438 6.691406 -5.816406 6.359375 -5.921875 C 6.023438 -6.035156 5.675781 -6.09375 5.3125 -6.09375 C 4.632812 -6.09375 4.101562 -5.890625 3.71875 -5.484375 C 3.34375 -5.085938 3.15625 -4.535156 3.15625 -3.828125 C 3.15625 -3.109375 3.34375 -2.546875 3.71875 -2.140625 C 4.101562 -1.742188 4.632812 -1.546875 5.3125 -1.546875 C 5.695312 -1.546875 6.0625 -1.601562 6.40625 -1.71875 C 6.75 -1.832031 7.066406 -2.003906 7.359375 -2.234375 L 7.359375 -0.21875 C 6.972656 -0.0820312 6.582031 0.0195312 6.1875 0.09375 C 5.800781 0.164062 5.410156 0.203125 5.015625 0.203125 C 3.628906 0.203125 2.546875 -0.148438 1.765625 -0.859375 C 0.992188 -1.566406 0.609375 -2.554688 0.609375 -3.828125 C 0.609375 -5.085938 0.992188 -6.070312 1.765625 -6.78125 C 2.546875 -7.488281 3.628906 -7.84375 5.015625 -7.84375 C 5.410156 -7.84375 5.800781 -7.804688 6.1875 -7.734375 C 6.582031 -7.660156 6.972656 -7.554688 7.359375 -7.421875 Z M 7.359375 -7.421875 "/>
</g>
<g id="glyph-0-13">
<path d="M 1.171875 -10.640625 L 3.625 -10.640625 L 3.625 0 L 1.171875 0 Z M 1.171875 -10.640625 "/>
</g>
<g id="glyph-1-0">
<path d="M 6.4375 -8.78125 L 6.4375 -4.96875 L 10.25 -4.96875 L 10.25 -3.8125 L 6.4375 -3.8125 L 6.4375 0 L 5.296875 0 L 5.296875 -3.8125 L 1.484375 -3.8125 L 1.484375 -4.96875 L 5.296875 -4.96875 L 5.296875 -8.78125 Z M 6.4375 -8.78125 "/>
</g>
<g id="glyph-1-1">
</g>
<g id="glyph-1-2">
<path d="M 1.3125 -7.65625 L 2.578125 -7.65625 L 2.578125 0 L 1.3125 0 Z M 1.3125 -10.640625 L 2.578125 -10.640625 L 2.578125 -9.046875 L 1.3125 -9.046875 Z M 1.3125 -10.640625 "/>
</g>
<g id="glyph-1-3">
<path d="M 6.359375 -6.5 L 6.359375 -10.640625 L 7.609375 -10.640625 L 7.609375 0 L 6.359375 0 L 6.359375 -1.15625 C 6.097656 -0.695312 5.765625 -0.351562 5.359375 -0.125 C 4.953125 0.09375 4.46875 0.203125 3.90625 0.203125 C 2.976562 0.203125 2.222656 -0.164062 1.640625 -0.90625 C 1.054688 -1.644531 0.765625 -2.617188 0.765625 -3.828125 C 0.765625 -5.023438 1.054688 -5.992188 1.640625 -6.734375 C 2.222656 -7.472656 2.976562 -7.84375 3.90625 -7.84375 C 4.46875 -7.84375 4.953125 -7.726562 5.359375 -7.5 C 5.765625 -7.28125 6.097656 -6.945312 6.359375 -6.5 Z M 2.078125 -3.828125 C 2.078125 -2.898438 2.265625 -2.171875 2.640625 -1.640625 C 3.023438 -1.117188 3.550781 -0.859375 4.21875 -0.859375 C 4.875 -0.859375 5.394531 -1.117188 5.78125 -1.640625 C 6.164062 -2.171875 6.359375 -2.898438 6.359375 -3.828125 C 6.359375 -4.742188 6.164062 -5.460938 5.78125 -5.984375 C 5.394531 -6.515625 4.875 -6.78125 4.21875 -6.78125 C 3.550781 -6.78125 3.023438 -6.515625 2.640625 -5.984375 C 2.265625 -5.460938 2.078125 -4.742188 2.078125 -3.828125 Z M 2.078125 -3.828125 "/>
</g>
<g id="glyph-1-4">
<path d="M 7.875 -4.140625 L 7.875 -3.53125 L 2.078125 -3.53125 C 2.140625 -2.664062 2.398438 -2.003906 2.859375 -1.546875 C 3.328125 -1.097656 3.976562 -0.875 4.8125 -0.875 C 5.300781 -0.875 5.769531 -0.929688 6.21875 -1.046875 C 6.675781 -1.160156 7.128906 -1.335938 7.578125 -1.578125 L 7.578125 -0.390625 C 7.117188 -0.203125 6.648438 -0.0546875 6.171875 0.046875 C 5.703125 0.148438 5.226562 0.203125 4.75 0.203125 C 3.519531 0.203125 2.546875 -0.148438 1.828125 -0.859375 C 1.117188 -1.578125 0.765625 -2.539062 0.765625 -3.75 C 0.765625 -5.007812 1.101562 -6.003906 1.78125 -6.734375 C 2.457031 -7.472656 3.375 -7.84375 4.53125 -7.84375 C 5.5625 -7.84375 6.375 -7.507812 6.96875 -6.84375 C 7.570312 -6.1875 7.875 -5.285156 7.875 -4.140625 Z M 6.609375 -4.515625 C 6.597656 -5.203125 6.40625 -5.75 6.03125 -6.15625 C 5.65625 -6.570312 5.160156 -6.78125 4.546875 -6.78125 C 3.835938 -6.78125 3.269531 -6.578125 2.84375 -6.171875 C 2.425781 -5.773438 2.1875 -5.21875 2.125 -4.5 Z M 6.609375 -4.515625 "/>
</g>
<g id="glyph-1-5">
<path d="M 7.28125 -6.1875 C 7.59375 -6.75 7.96875 -7.164062 8.40625 -7.4375 C 8.84375 -7.707031 9.359375 -7.84375 9.953125 -7.84375 C 10.753906 -7.84375 11.367188 -7.5625 11.796875 -7 C 12.234375 -6.445312 12.453125 -5.65625 12.453125 -4.625 L 12.453125 0 L 11.1875 0 L 11.1875 -4.578125 C 11.1875 -5.316406 11.054688 -5.863281 10.796875 -6.21875 C 10.535156 -6.570312 10.140625 -6.75 9.609375 -6.75 C 8.953125 -6.75 8.4375 -6.53125 8.0625 -6.09375 C 7.6875 -5.664062 7.5 -5.078125 7.5 -4.328125 L 7.5 0 L 6.234375 0 L 6.234375 -4.578125 C 6.234375 -5.316406 6.101562 -5.863281 5.84375 -6.21875 C 5.582031 -6.570312 5.179688 -6.75 4.640625 -6.75 C 3.992188 -6.75 3.476562 -6.53125 3.09375 -6.09375 C 2.71875 -5.65625 2.53125 -5.066406 2.53125 -4.328125 L 2.53125 0 L 1.265625 0 L 1.265625 -7.65625 L 2.53125 -7.65625 L 2.53125 -6.46875 C 2.820312 -6.9375 3.164062 -7.28125 3.5625 -7.5 C 3.96875 -7.726562 4.445312 -7.84375 5 -7.84375 C 5.550781 -7.84375 6.019531 -7.703125 6.40625 -7.421875 C 6.800781 -7.140625 7.09375 -6.726562 7.28125 -6.1875 Z M 7.28125 -6.1875 "/>
</g>
<g id="glyph-1-6">
<path d="M 4.796875 -3.84375 C 3.785156 -3.84375 3.082031 -3.726562 2.6875 -3.5 C 2.289062 -3.269531 2.09375 -2.875 2.09375 -2.3125 C 2.09375 -1.863281 2.238281 -1.507812 2.53125 -1.25 C 2.832031 -0.988281 3.234375 -0.859375 3.734375 -0.859375 C 4.429688 -0.859375 4.988281 -1.101562 5.40625 -1.59375 C 5.832031 -2.09375 6.046875 -2.75 6.046875 -3.5625 L 6.046875 -3.84375 Z M 7.3125 -4.375 L 7.3125 0 L 6.046875 0 L 6.046875 -1.15625 C 5.765625 -0.695312 5.40625 -0.351562 4.96875 -0.125 C 4.539062 0.09375 4.019531 0.203125 3.40625 0.203125 C 2.625 0.203125 2 -0.015625 1.53125 -0.453125 C 1.070312 -0.898438 0.84375 -1.492188 0.84375 -2.234375 C 0.84375 -3.085938 1.128906 -3.734375 1.703125 -4.171875 C 2.285156 -4.609375 3.144531 -4.828125 4.28125 -4.828125 L 6.046875 -4.828125 L 6.046875 -4.953125 C 6.046875 -5.535156 5.851562 -5.984375 5.46875 -6.296875 C 5.09375 -6.617188 4.5625 -6.78125 3.875 -6.78125 C 3.4375 -6.78125 3.007812 -6.722656 2.59375 -6.609375 C 2.175781 -6.503906 1.78125 -6.347656 1.40625 -6.140625 L 1.40625 -7.3125 C 1.863281 -7.488281 2.304688 -7.617188 2.734375 -7.703125 C 3.171875 -7.796875 3.59375 -7.84375 4 -7.84375 C 5.113281 -7.84375 5.941406 -7.554688 6.484375 -6.984375 C 7.035156 -6.410156 7.3125 -5.539062 7.3125 -4.375 Z M 7.3125 -4.375 "/>
</g>
<g id="glyph-1-7">
<path d="M 1.3125 -10.640625 L 2.578125 -10.640625 L 2.578125 0 L 1.3125 0 Z M 1.3125 -10.640625 "/>
</g>
<g id="glyph-1-8">
<path d="M 0.6875 -4.390625 L 4.375 -4.390625 L 4.375 -3.28125 L 0.6875 -3.28125 Z M 0.6875 -4.390625 "/>
</g>
<g id="glyph-1-9">
<path d="M 2.53125 -1.15625 L 2.53125 2.90625 L 1.265625 2.90625 L 1.265625 -7.65625 L 2.53125 -7.65625 L 2.53125 -6.5 C 2.800781 -6.945312 3.132812 -7.28125 3.53125 -7.5 C 3.9375 -7.726562 4.421875 -7.84375 4.984375 -7.84375 C 5.910156 -7.84375 6.664062 -7.472656 7.25 -6.734375 C 7.832031 -5.992188 8.125 -5.023438 8.125 -3.828125 C 8.125 -2.617188 7.832031 -1.644531 7.25 -0.90625 C 6.664062 -0.164062 5.910156 0.203125 4.984375 0.203125 C 4.421875 0.203125 3.9375 0.09375 3.53125 -0.125 C 3.132812 -0.351562 2.800781 -0.695312 2.53125 -1.15625 Z M 6.8125 -3.828125 C 6.8125 -4.742188 6.617188 -5.460938 6.234375 -5.984375 C 5.859375 -6.515625 5.335938 -6.78125 4.671875 -6.78125 C 4.003906 -6.78125 3.476562 -6.515625 3.09375 -5.984375 C 2.71875 -5.460938 2.53125 -4.742188 2.53125 -3.828125 C 2.53125 -2.898438 2.71875 -2.171875 3.09375 -1.640625 C 3.476562 -1.117188 4.003906 -0.859375 4.671875 -0.859375 C 5.335938 -0.859375 5.859375 -1.117188 6.234375 -1.640625 C 6.617188 -2.171875 6.8125 -2.898438 6.8125 -3.828125 Z M 6.8125 -3.828125 "/>
</g>
<g id="glyph-1-10">
<path d="M 6.203125 -7.4375 L 6.203125 -6.234375 C 5.847656 -6.421875 5.476562 -6.554688 5.09375 -6.640625 C 4.707031 -6.734375 4.3125 -6.78125 3.90625 -6.78125 C 3.28125 -6.78125 2.8125 -6.6875 2.5 -6.5 C 2.1875 -6.3125 2.03125 -6.023438 2.03125 -5.640625 C 2.03125 -5.347656 2.140625 -5.117188 2.359375 -4.953125 C 2.585938 -4.785156 3.039062 -4.628906 3.71875 -4.484375 L 4.140625 -4.375 C 5.035156 -4.1875 5.671875 -3.914062 6.046875 -3.5625 C 6.421875 -3.21875 6.609375 -2.734375 6.609375 -2.109375 C 6.609375 -1.398438 6.328125 -0.835938 5.765625 -0.421875 C 5.203125 -0.00390625 4.429688 0.203125 3.453125 0.203125 C 3.035156 0.203125 2.601562 0.160156 2.15625 0.078125 C 1.71875 -0.00390625 1.253906 -0.125 0.765625 -0.28125 L 0.765625 -1.578125 C 1.222656 -1.335938 1.675781 -1.15625 2.125 -1.03125 C 2.582031 -0.914062 3.03125 -0.859375 3.46875 -0.859375 C 4.0625 -0.859375 4.515625 -0.957031 4.828125 -1.15625 C 5.148438 -1.363281 5.3125 -1.648438 5.3125 -2.015625 C 5.3125 -2.359375 5.195312 -2.617188 4.96875 -2.796875 C 4.738281 -2.984375 4.234375 -3.160156 3.453125 -3.328125 L 3.015625 -3.4375 C 2.242188 -3.59375 1.679688 -3.84375 1.328125 -4.1875 C 0.984375 -4.53125 0.8125 -4.992188 0.8125 -5.578125 C 0.8125 -6.304688 1.066406 -6.863281 1.578125 -7.25 C 2.085938 -7.644531 2.8125 -7.84375 3.75 -7.84375 C 4.21875 -7.84375 4.65625 -7.804688 5.0625 -7.734375 C 5.476562 -7.671875 5.859375 -7.570312 6.203125 -7.4375 Z M 6.203125 -7.4375 "/>
</g>
<g id="glyph-1-11">
<path d="M 0.59375 -7.65625 L 1.84375 -7.65625 L 3.421875 -1.6875 L 4.984375 -7.65625 L 6.46875 -7.65625 L 8.046875 -1.6875 L 9.609375 -7.65625 L 10.859375 -7.65625 L 8.859375 0 L 7.375 0 L 5.734375 -6.28125 L 4.078125 0 L 2.59375 0 Z M 0.59375 -7.65625 "/>
</g>
<g id="glyph-1-12">
<path d="M 4.28125 -6.78125 C 3.613281 -6.78125 3.082031 -6.515625 2.6875 -5.984375 C 2.289062 -5.460938 2.09375 -4.742188 2.09375 -3.828125 C 2.09375 -2.910156 2.285156 -2.1875 2.671875 -1.65625 C 3.066406 -1.132812 3.601562 -0.875 4.28125 -0.875 C 4.957031 -0.875 5.488281 -1.132812 5.875 -1.65625 C 6.269531 -2.1875 6.46875 -2.910156 6.46875 -3.828125 C 6.46875 -4.734375 6.269531 -5.453125 5.875 -5.984375 C 5.488281 -6.515625 4.957031 -6.78125 4.28125 -6.78125 Z M 4.28125 -7.84375 C 5.375 -7.84375 6.234375 -7.484375 6.859375 -6.765625 C 7.484375 -6.054688 7.796875 -5.078125 7.796875 -3.828125 C 7.796875 -2.566406 7.484375 -1.578125 6.859375 -0.859375 C 6.234375 -0.148438 5.375 0.203125 4.28125 0.203125 C 3.1875 0.203125 2.328125 -0.148438 1.703125 -0.859375 C 1.078125 -1.578125 0.765625 -2.566406 0.765625 -3.828125 C 0.765625 -5.078125 1.078125 -6.054688 1.703125 -6.765625 C 2.328125 -7.484375 3.1875 -7.84375 4.28125 -7.84375 Z M 4.28125 -7.84375 "/>
</g>
<g id="glyph-1-13">
<path d="M 5.75 -6.484375 C 5.613281 -6.566406 5.460938 -6.625 5.296875 -6.65625 C 5.128906 -6.695312 4.945312 -6.71875 4.75 -6.71875 C 4.03125 -6.71875 3.476562 -6.484375 3.09375 -6.015625 C 2.71875 -5.554688 2.53125 -4.894531 2.53125 -4.03125 L 2.53125 0 L 1.265625 0 L 1.265625 -7.65625 L 2.53125 -7.65625 L 2.53125 -6.46875 C 2.800781 -6.9375 3.144531 -7.28125 3.5625 -7.5 C 3.988281 -7.726562 4.503906 -7.84375 5.109375 -7.84375 C 5.203125 -7.84375 5.300781 -7.835938 5.40625 -7.828125 C 5.507812 -7.816406 5.625 -7.796875 5.75 -7.765625 Z M 5.75 -6.484375 "/>
</g>
<g id="glyph-1-14">
<path d="M 7.6875 -4.625 L 7.6875 0 L 6.421875 0 L 6.421875 -4.578125 C 6.421875 -5.304688 6.28125 -5.847656 6 -6.203125 C 5.71875 -6.566406 5.296875 -6.75 4.734375 -6.75 C 4.054688 -6.75 3.519531 -6.53125 3.125 -6.09375 C 2.726562 -5.664062 2.53125 -5.078125 2.53125 -4.328125 L 2.53125 0 L 1.265625 0 L 1.265625 -7.65625 L 2.53125 -7.65625 L 2.53125 -6.46875 C 2.832031 -6.925781 3.1875 -7.269531 3.59375 -7.5 C 4.007812 -7.726562 4.484375 -7.84375 5.015625 -7.84375 C 5.890625 -7.84375 6.550781 -7.566406 7 -7.015625 C 7.457031 -6.472656 7.6875 -5.675781 7.6875 -4.625 Z M 7.6875 -4.625 "/>
</g>
<g id="glyph-1-15">
<path d="M 2.5625 -9.828125 L 2.5625 -7.65625 L 5.15625 -7.65625 L 5.15625 -6.671875 L 2.5625 -6.671875 L 2.5625 -2.515625 C 2.5625 -1.898438 2.644531 -1.5 2.8125 -1.3125 C 2.988281 -1.132812 3.335938 -1.046875 3.859375 -1.046875 L 5.15625 -1.046875 L 5.15625 0 L 3.859375 0 C 2.890625 0 2.21875 -0.179688 1.84375 -0.546875 C 1.476562 -0.910156 1.296875 -1.566406 1.296875 -2.515625 L 1.296875 -6.671875 L 0.375 -6.671875 L 0.375 -7.65625 L 1.296875 -7.65625 L 1.296875 -9.828125 Z M 2.5625 -9.828125 "/>
</g>
<g id="glyph-1-16">
<path d="M 6.828125 -7.359375 L 6.828125 -6.1875 C 6.472656 -6.382812 6.113281 -6.53125 5.75 -6.625 C 5.394531 -6.726562 5.035156 -6.78125 4.671875 -6.78125 C 3.859375 -6.78125 3.222656 -6.519531 2.765625 -6 C 2.316406 -5.476562 2.09375 -4.753906 2.09375 -3.828125 C 2.09375 -2.890625 2.316406 -2.160156 2.765625 -1.640625 C 3.222656 -1.128906 3.859375 -0.875 4.671875 -0.875 C 5.035156 -0.875 5.394531 -0.921875 5.75 -1.015625 C 6.113281 -1.109375 6.472656 -1.253906 6.828125 -1.453125 L 6.828125 -0.296875 C 6.472656 -0.128906 6.109375 -0.00390625 5.734375 0.078125 C 5.359375 0.160156 4.960938 0.203125 4.546875 0.203125 C 3.390625 0.203125 2.46875 -0.15625 1.78125 -0.875 C 1.101562 -1.601562 0.765625 -2.585938 0.765625 -3.828125 C 0.765625 -5.066406 1.109375 -6.046875 1.796875 -6.765625 C 2.484375 -7.484375 3.425781 -7.84375 4.625 -7.84375 C 5.007812 -7.84375 5.382812 -7.800781 5.75 -7.71875 C 6.125 -7.644531 6.484375 -7.523438 6.828125 -7.359375 Z M 6.828125 -7.359375 "/>
</g>
<g id="glyph-1-17">
<path d="M 6.359375 -3.921875 C 6.359375 -4.828125 6.171875 -5.53125 5.796875 -6.03125 C 5.421875 -6.53125 4.894531 -6.78125 4.21875 -6.78125 C 3.539062 -6.78125 3.015625 -6.53125 2.640625 -6.03125 C 2.265625 -5.53125 2.078125 -4.828125 2.078125 -3.921875 C 2.078125 -3.015625 2.265625 -2.304688 2.640625 -1.796875 C 3.015625 -1.296875 3.539062 -1.046875 4.21875 -1.046875 C 4.894531 -1.046875 5.421875 -1.296875 5.796875 -1.796875 C 6.171875 -2.304688 6.359375 -3.015625 6.359375 -3.921875 Z M 7.609375 -0.953125 C 7.609375 0.347656 7.316406 1.316406 6.734375 1.953125 C 6.160156 2.585938 5.28125 2.90625 4.09375 2.90625 C 3.644531 2.90625 3.222656 2.875 2.828125 2.8125 C 2.441406 2.75 2.066406 2.648438 1.703125 2.515625 L 1.703125 1.28125 C 2.066406 1.488281 2.425781 1.640625 2.78125 1.734375 C 3.144531 1.828125 3.515625 1.875 3.890625 1.875 C 4.710938 1.875 5.328125 1.65625 5.734375 1.21875 C 6.148438 0.789062 6.359375 0.144531 6.359375 -0.71875 L 6.359375 -1.34375 C 6.097656 -0.894531 5.765625 -0.554688 5.359375 -0.328125 C 4.953125 -0.109375 4.46875 0 3.90625 0 C 2.96875 0 2.207031 -0.351562 1.625 -1.0625 C 1.050781 -1.78125 0.765625 -2.734375 0.765625 -3.921875 C 0.765625 -5.097656 1.050781 -6.046875 1.625 -6.765625 C 2.207031 -7.484375 2.96875 -7.84375 3.90625 -7.84375 C 4.46875 -7.84375 4.953125 -7.726562 5.359375 -7.5 C 5.765625 -7.28125 6.097656 -6.945312 6.359375 -6.5 L 6.359375 -7.65625 L 7.609375 -7.65625 Z M 7.609375 -0.953125 "/>
</g>
<g id="glyph-1-18">
<path d="M 4.5 0.71875 C 4.144531 1.625 3.796875 2.210938 3.453125 2.484375 C 3.117188 2.765625 2.671875 2.90625 2.109375 2.90625 L 1.109375 2.90625 L 1.109375 1.859375 L 1.84375 1.859375 C 2.1875 1.859375 2.453125 1.773438 2.640625 1.609375 C 2.835938 1.453125 3.050781 1.066406 3.28125 0.453125 L 3.515625 -0.125 L 0.421875 -7.65625 L 1.75 -7.65625 L 4.140625 -1.671875 L 6.53125 -7.65625 L 7.875 -7.65625 Z M 4.5 0.71875 "/>
</g>
<g id="glyph-1-19">
<path d="M 1.1875 -3.015625 L 1.1875 -7.65625 L 2.453125 -7.65625 L 2.453125 -3.0625 C 2.453125 -2.34375 2.59375 -1.800781 2.875 -1.4375 C 3.15625 -1.070312 3.578125 -0.890625 4.140625 -0.890625 C 4.816406 -0.890625 5.351562 -1.101562 5.75 -1.53125 C 6.144531 -1.96875 6.34375 -2.5625 6.34375 -3.3125 L 6.34375 -7.65625 L 7.609375 -7.65625 L 7.609375 0 L 6.34375 0 L 6.34375 -1.171875 C 6.039062 -0.710938 5.6875 -0.367188 5.28125 -0.140625 C 4.875 0.0859375 4.40625 0.203125 3.875 0.203125 C 3 0.203125 2.332031 -0.0664062 1.875 -0.609375 C 1.414062 -1.160156 1.1875 -1.960938 1.1875 -3.015625 Z M 4.359375 -7.84375 Z M 4.359375 -7.84375 "/>
</g>
<g id="glyph-1-20">
<path d="M 1.375 -10.203125 L 3.234375 -10.203125 L 7.765625 -1.671875 L 7.765625 -10.203125 L 9.09375 -10.203125 L 9.09375 0 L 7.234375 0 L 2.71875 -8.53125 L 2.71875 0 L 1.375 0 Z M 1.375 -10.203125 "/>
</g>
<g id="glyph-1-21">
<path d="M 2.75 -9.078125 L 2.75 -1.140625 L 4.421875 -1.140625 C 5.828125 -1.140625 6.859375 -1.457031 7.515625 -2.09375 C 8.171875 -2.726562 8.5 -3.734375 8.5 -5.109375 C 8.5 -6.484375 8.171875 -7.488281 7.515625 -8.125 C 6.859375 -8.757812 5.828125 -9.078125 4.421875 -9.078125 Z M 1.375 -10.203125 L 4.21875 -10.203125 C 6.1875 -10.203125 7.632812 -9.789062 8.5625 -8.96875 C 9.488281 -8.144531 9.953125 -6.859375 9.953125 -5.109375 C 9.953125 -3.347656 9.488281 -2.054688 8.5625 -1.234375 C 7.632812 -0.410156 6.1875 0 4.21875 0 L 1.375 0 Z M 1.375 -10.203125 "/>
</g>
</g>
</defs>
<path fill="none" stroke-width="2" stroke-linecap="butt" stroke-linejoin="round" stroke="rgb(0%, 0%, 0%)" stroke-opacity="1" stroke-miterlimit="10" d="M 0.0000305176 0 L 132.000031 0 L 132.000031 117 L 0.0000305176 117 Z M 0.0000305176 0 Z M 0.0000305176 0 " transform="matrix(1, 0, 0, 1, 360.335907, 473.554688)"/>
<g fill="rgb(0%, 0%, 0%)" fill-opacity="1">
<use xlink:href="#glyph-0-0" x="409.335938" y="504.554688"/>
<use xlink:href="#glyph-0-1" x="420.335938" y="504.554688"/>
<use xlink:href="#glyph-0-2" x="428.335938" y="504.554688"/>
<use xlink:href="#glyph-0-3" x="437.335938" y="504.554688"/>
</g>
<path fill="none" stroke-width="2" stroke-linecap="butt" stroke-linejoin="round" stroke="rgb(0%, 0%, 0%)" stroke-opacity="1" stroke-miterlimit="10" d="M 0.0000305176 41 L 132.000031 41 " transform="matrix(1, 0, 0, 1, 360.335907, 473.554688)"/>
<g fill="rgb(0%, 0%, 0%)" fill-opacity="1">
<use xlink:href="#glyph-1-0" x="364.335938" y="531.554688"/>
<use xlink:href="#glyph-1-1" x="376.335938" y="531.554688"/>
<use xlink:href="#glyph-1-2" x="380.335938" y="531.554688"/>
<use xlink:href="#glyph-1-3" x="384.335938" y="531.554688"/>
</g>
<g fill="rgb(0%, 0%, 0%)" fill-opacity="1">
<use xlink:href="#glyph-1-0" x="364.335938" y="548.554688"/>
<use xlink:href="#glyph-1-1" x="376.335938" y="548.554688"/>
<use xlink:href="#glyph-1-4" x="380.335938" y="548.554688"/>
<use xlink:href="#glyph-1-5" x="389.335938" y="548.554688"/>
<use xlink:href="#glyph-1-6" x="403.335938" y="548.554688"/>
<use xlink:href="#glyph-1-2" x="412.335938" y="548.554688"/>
<use xlink:href="#glyph-1-7" x="416.335938" y="548.554688"/>
</g>
<g fill="rgb(0%, 0%, 0%)" fill-opacity="1">
<use xlink:href="#glyph-1-8" x="364.335938" y="565.554688"/>
<use xlink:href="#glyph-1-1" x="369.335938" y="565.554688"/>
<use xlink:href="#glyph-1-9" x="373.335938" y="565.554688"/>
<use xlink:href="#glyph-1-6" x="382.335938" y="565.554688"/>
<use xlink:href="#glyph-1-10" x="391.335938" y="565.554688"/>
<use xlink:href="#glyph-1-10" x="398.335938" y="565.554688"/>
<use xlink:href="#glyph-1-11" x="405.335938" y="565.554688"/>
<use xlink:href="#glyph-1-12" x="416.335938" y="565.554688"/>
<use xlink:href="#glyph-1-13" x="425.335938" y="565.554688"/>
<use xlink:href="#glyph-1-3" x="431.335938" y="565.554688"/>
</g>
<g fill="rgb(0%, 0%, 0%)" fill-opacity="1">
<use xlink:href="#glyph-1-8" x="364.335938" y="582.554688"/>
<use xlink:href="#glyph-1-1" x="369.335938" y="582.554688"/>
<use xlink:href="#glyph-1-14" x="373.335938" y="582.554688"/>
<use xlink:href="#glyph-1-6" x="382.335938" y="582.554688"/>
<use xlink:href="#glyph-1-5" x="391.335938" y="582.554688"/>
<use xlink:href="#glyph-1-4" x="405.335938" y="582.554688"/>
</g>
<path fill="none" stroke-width="2" stroke-linecap="butt" stroke-linejoin="round" stroke="rgb(0%, 0%, 0%)" stroke-opacity="1" stroke-miterlimit="10" d="M 0 -0.0000152588 L 100 -0.0000152588 L 100 184.999985 L 0 184.999985 Z M 0 -0.0000152588 Z M 0 -0.0000152588 " transform="matrix(1, 0, 0, 1, 681.804688, 303.89064)"/>
<g fill="rgb(0%, 0%, 0%)" fill-opacity="1">
<use xlink:href="#glyph-0-4" x="714.804688" y="334.890625"/>
<use xlink:href="#glyph-0-5" x="722.804688" y="334.890625"/>
<use xlink:href="#glyph-0-1" x="731.804688" y="334.890625"/>
<use xlink:href="#glyph-0-6" x="739.804688" y="334.890625"/>
</g>
<path fill="none" stroke-width="2" stroke-linecap="butt" stroke-linejoin="round" stroke="rgb(0%, 0%, 0%)" stroke-opacity="1" stroke-miterlimit="10" d="M 0 40.999985 L 100 40.999985 " transform="matrix(1, 0, 0, 1, 681.804688, 303.89064)"/>
<g fill="rgb(0%, 0%, 0%)" fill-opacity="1">
<use xlink:href="#glyph-1-0" x="685.804688" y="361.890625"/>
<use xlink:href="#glyph-1-1" x="697.804688" y="361.890625"/>
<use xlink:href="#glyph-1-2" x="701.804688" y="361.890625"/>
<use xlink:href="#glyph-1-3" x="705.804688" y="361.890625"/>
</g>
<g fill="rgb(0%, 0%, 0%)" fill-opacity="1">
<use xlink:href="#glyph-1-8" x="685.804688" y="378.890625"/>
<use xlink:href="#glyph-1-1" x="690.804688" y="378.890625"/>
<use xlink:href="#glyph-1-15" x="694.804688" y="378.890625"/>
<use xlink:href="#glyph-1-2" x="699.804688" y="378.890625"/>
<use xlink:href="#glyph-1-15" x="703.804688" y="378.890625"/>
<use xlink:href="#glyph-1-7" x="708.804688" y="378.890625"/>
<use xlink:href="#glyph-1-4" x="712.804688" y="378.890625"/>
</g>
<g fill="rgb(0%, 0%, 0%)" fill-opacity="1">
<use xlink:href="#glyph-1-8" x="685.804688" y="395.890625"/>
<use xlink:href="#glyph-1-1" x="690.804688" y="395.890625"/>
<use xlink:href="#glyph-1-3" x="694.804688" y="395.890625"/>
<use xlink:href="#glyph-1-4" x="703.804688" y="395.890625"/>
<use xlink:href="#glyph-1-10" x="712.804688" y="395.890625"/>
<use xlink:href="#glyph-1-16" x="719.804688" y="395.890625"/>
<use xlink:href="#glyph-1-13" x="727.804688" y="395.890625"/>
<use xlink:href="#glyph-1-2" x="733.804688" y="395.890625"/>
<use xlink:href="#glyph-1-9" x="737.804688" y="395.890625"/>
<use xlink:href="#glyph-1-15" x="746.804688" y="395.890625"/>
<use xlink:href="#glyph-1-2" x="751.804688" y="395.890625"/>
<use xlink:href="#glyph-1-12" x="755.804688" y="395.890625"/>
<use xlink:href="#glyph-1-14" x="764.804688" y="395.890625"/>
</g>
<g fill="rgb(0%, 0%, 0%)" fill-opacity="1">
<use xlink:href="#glyph-1-8" x="685.804688" y="412.890625"/>
<use xlink:href="#glyph-1-1" x="690.804688" y="412.890625"/>
<use xlink:href="#glyph-1-16" x="694.804688" y="412.890625"/>
<use xlink:href="#glyph-1-6" x="702.804688" y="412.890625"/>
<use xlink:href="#glyph-1-15" x="711.804688" y="412.890625"/>
<use xlink:href="#glyph-1-4" x="716.804688" y="412.890625"/>
<use xlink:href="#glyph-1-17" x="725.804688" y="412.890625"/>
<use xlink:href="#glyph-1-12" x="734.804688" y="412.890625"/>
<use xlink:href="#glyph-1-13" x="743.804688" y="412.890625"/>
<use xlink:href="#glyph-1-18" x="749.804688" y="412.890625"/>
</g>
<g fill="rgb(0%, 0%, 0%)" fill-opacity="1">
<use xlink:href="#glyph-1-8" x="685.804688" y="429.890625"/>
<use xlink:href="#glyph-1-1" x="690.804688" y="429.890625"/>
<use xlink:href="#glyph-1-10" x="694.804688" y="429.890625"/>
<use xlink:href="#glyph-1-15" x="701.804688" y="429.890625"/>
<use xlink:href="#glyph-1-6" x="706.804688" y="429.890625"/>
<use xlink:href="#glyph-1-15" x="715.804688" y="429.890625"/>
<use xlink:href="#glyph-1-19" x="720.804688" y="429.890625"/>
<use xlink:href="#glyph-1-10" x="729.804688" y="429.890625"/>
</g>
<g fill="rgb(0%, 0%, 0%)" fill-opacity="1">
<use xlink:href="#glyph-1-8" x="685.804688" y="446.890625"/>
<use xlink:href="#glyph-1-1" x="690.804688" y="446.890625"/>
<use xlink:href="#glyph-1-3" x="694.804688" y="446.890625"/>
<use xlink:href="#glyph-1-19" x="703.804688" y="446.890625"/>
<use xlink:href="#glyph-1-4" x="712.804688" y="446.890625"/>
<use xlink:href="#glyph-1-3" x="721.804688" y="446.890625"/>
<use xlink:href="#glyph-1-6" x="730.804688" y="446.890625"/>
<use xlink:href="#glyph-1-15" x="739.804688" y="446.890625"/>
<use xlink:href="#glyph-1-4" x="744.804688" y="446.890625"/>
</g>
<g fill="rgb(0%, 0%, 0%)" fill-opacity="1">
<use xlink:href="#glyph-1-8" x="685.804688" y="463.890625"/>
<use xlink:href="#glyph-1-1" x="690.804688" y="463.890625"/>
<use xlink:href="#glyph-1-3" x="694.804688" y="463.890625"/>
<use xlink:href="#glyph-1-19" x="703.804688" y="463.890625"/>
<use xlink:href="#glyph-1-4" x="712.804688" y="463.890625"/>
<use xlink:href="#glyph-1-15" x="721.804688" y="463.890625"/>
<use xlink:href="#glyph-1-2" x="726.804688" y="463.890625"/>
<use xlink:href="#glyph-1-5" x="730.804688" y="463.890625"/>
<use xlink:href="#glyph-1-4" x="744.804688" y="463.890625"/>
</g>
<g fill="rgb(0%, 0%, 0%)" fill-opacity="1">
<use xlink:href="#glyph-1-8" x="685.804688" y="480.890625"/>
<use xlink:href="#glyph-1-1" x="690.804688" y="480.890625"/>
<use xlink:href="#glyph-1-19" x="694.804688" y="480.890625"/>
<use xlink:href="#glyph-1-10" x="703.804688" y="480.890625"/>
<use xlink:href="#glyph-1-4" x="710.804688" y="480.890625"/>
<use xlink:href="#glyph-1-13" x="719.804688" y="480.890625"/>
<use xlink:href="#glyph-1-2" x="725.804688" y="480.890625"/>
<use xlink:href="#glyph-1-3" x="729.804688" y="480.890625"/>
</g>
<path fill="none" stroke-width="2" stroke-linecap="butt" stroke-linejoin="round" stroke="rgb(0%, 0%, 0%)" stroke-opacity="1" stroke-miterlimit="10" d="M 0.0000305176 0.0000610352 L 100.000031 0.0000610352 L 100.000031 117.000061 L 0.0000305176 117.000061 Z M 0.0000305176 0.0000610352 Z M 0.0000305176 0.0000610352 " transform="matrix(1, 0, 0, 1, 360.335907, 274.667908)"/>
<g fill="rgb(0%, 0%, 0%)" fill-opacity="1">
<use xlink:href="#glyph-0-7" x="375.335938" y="305.667969"/>
<use xlink:href="#glyph-0-5" x="385.335938" y="305.667969"/>
<use xlink:href="#glyph-0-8" x="394.335938" y="305.667969"/>
<use xlink:href="#glyph-0-2" x="401.335938" y="305.667969"/>
<use xlink:href="#glyph-0-9" x="410.335938" y="305.667969"/>
<use xlink:href="#glyph-0-10" x="420.335938" y="305.667969"/>
<use xlink:href="#glyph-0-3" x="430.335938" y="305.667969"/>
<use xlink:href="#glyph-0-11" x="437.335938" y="305.667969"/>
</g>
<path fill="none" stroke-width="2" stroke-linecap="butt" stroke-linejoin="round" stroke="rgb(0%, 0%, 0%)" stroke-opacity="1" stroke-miterlimit="10" d="M 0.0000305176 41.000061 L 100.000031 41.000061 " transform="matrix(1, 0, 0, 1, 360.335907, 274.667908)"/>
<g fill="rgb(0%, 0%, 0%)" fill-opacity="1">
<use xlink:href="#glyph-1-0" x="364.335938" y="332.667969"/>
<use xlink:href="#glyph-1-1" x="376.335938" y="332.667969"/>
<use xlink:href="#glyph-1-2" x="380.335938" y="332.667969"/>
<use xlink:href="#glyph-1-3" x="384.335938" y="332.667969"/>
</g>
<g fill="rgb(0%, 0%, 0%)" fill-opacity="1">
<use xlink:href="#glyph-1-8" x="364.335938" y="349.667969"/>
<use xlink:href="#glyph-1-1" x="369.335938" y="349.667969"/>
<use xlink:href="#glyph-1-14" x="373.335938" y="349.667969"/>
<use xlink:href="#glyph-1-6" x="382.335938" y="349.667969"/>
<use xlink:href="#glyph-1-5" x="391.335938" y="349.667969"/>
<use xlink:href="#glyph-1-4" x="405.335938" y="349.667969"/>
</g>
<g fill="rgb(0%, 0%, 0%)" fill-opacity="1">
<use xlink:href="#glyph-1-8" x="364.335938" y="366.667969"/>
<use xlink:href="#glyph-1-1" x="369.335938" y="366.667969"/>
<use xlink:href="#glyph-1-16" x="373.335938" y="366.667969"/>
<use xlink:href="#glyph-1-12" x="381.335938" y="366.667969"/>
<use xlink:href="#glyph-1-7" x="390.335938" y="366.667969"/>
<use xlink:href="#glyph-1-12" x="394.335938" y="366.667969"/>
<use xlink:href="#glyph-1-13" x="403.335938" y="366.667969"/>
</g>
<g fill="rgb(0%, 0%, 0%)" fill-opacity="1">
<use xlink:href="#glyph-1-8" x="364.335938" y="383.667969"/>
<use xlink:href="#glyph-1-1" x="369.335938" y="383.667969"/>
<use xlink:href="#glyph-1-19" x="373.335938" y="383.667969"/>
<use xlink:href="#glyph-1-10" x="382.335938" y="383.667969"/>
<use xlink:href="#glyph-1-4" x="389.335938" y="383.667969"/>
<use xlink:href="#glyph-1-13" x="398.335938" y="383.667969"/>
<use xlink:href="#glyph-1-2" x="404.335938" y="383.667969"/>
<use xlink:href="#glyph-1-3" x="408.335938" y="383.667969"/>
</g>
<path fill="none" stroke-width="2" stroke-linecap="butt" stroke-linejoin="round" stroke="rgb(0%, 0%, 0%)" stroke-opacity="1" stroke-miterlimit="10" d="M 139.925781 -223.5 L -81.542969 -315.238281 M -65.390625 -315.042969 L -81.542969 -315.238281 L -69.980469 -303.953125 " transform="matrix(1, 0, 0, 1, 541.878906, 643.265625)"/>
<path fill-rule="nonzero" fill="rgb(0%, 0%, 0%)" fill-opacity="1" d="M 571.835938 372.046875 L 568.207031 365.132812 L 575.664062 362.808594 "/>
<path fill="none" stroke-width="2" stroke-linecap="butt" stroke-linejoin="round" stroke="rgb(0%, 0%, 0%)" stroke-opacity="1" stroke-miterlimit="10" d="M 0.925781 0 L -188.542969 53.273438 M -175.726562 43.4375 L -188.542969 53.273438 L -172.480469 54.988281 " transform="matrix(1, 0, 0, 1, 680.878906, 473.554688)"/>
<path fill-rule="nonzero" fill="rgb(0%, 0%, 0%)" fill-opacity="1" d="M 586.527344 498.265625 L 579.398438 495.078125 L 583.820312 488.640625 "/>
<path fill="none" stroke-width="2" stroke-linecap="butt" stroke-linejoin="round" stroke="rgb(0%, 0%, 0%)" stroke-opacity="1" stroke-miterlimit="10" d="M 36.382843 -5.226578 L -15.695282 -5.226578 L -15.695282 142.249985 L 36.382843 142.249985 M 21.382843 148.249985 L 36.382843 142.249985 L 21.382843 136.249985 " transform="matrix(1, 0, 0, 1, 323.953094, 384.57814)"/>
<path fill-rule="nonzero" fill="rgb(0%, 0%, 0%)" fill-opacity="1" d="M 306.257812 453.089844 L 301.257812 459.089844 L 296.257812 453.089844 "/>
<path fill-rule="nonzero" fill="rgb(100%, 100%, 100%)" fill-opacity="1" stroke-width="1" stroke-linecap="butt" stroke-linejoin="miter" stroke="rgb(0%, 0%, 0%)" stroke-opacity="1" stroke-miterlimit="10" d="M -1 -1 L -1 33 L 137 33 L 141 16.5 L 141 -1 "/>
<g fill="rgb(0%, 0%, 0%)" fill-opacity="1">
<use xlink:href="#glyph-0-12" x="8" y="21"/>
<use xlink:href="#glyph-0-13" x="16" y="21"/>
<use xlink:href="#glyph-0-1" x="21" y="21"/>
</g>
<g fill="rgb(0%, 0%, 0%)" fill-opacity="1">
<use xlink:href="#glyph-1-20" x="37" y="21"/>
<use xlink:href="#glyph-1-4" x="47" y="21"/>
<use xlink:href="#glyph-1-11" x="56" y="21"/>
<use xlink:href="#glyph-1-1" x="67" y="21"/>
<use xlink:href="#glyph-1-21" x="71" y="21"/>
<use xlink:href="#glyph-1-2" x="82" y="21"/>
<use xlink:href="#glyph-1-6" x="86" y="21"/>
<use xlink:href="#glyph-1-17" x="95" y="21"/>
<use xlink:href="#glyph-1-13" x="104" y="21"/>
<use xlink:href="#glyph-1-6" x="110" y="21"/>
<use xlink:href="#glyph-1-5" x="119" y="21"/>
</g>
</svg>
